#N canvas 491 377 817 584 12;
#X obj 100 214 vsl 14 80 0 1 0 0 empty empty empty 0 -9 0 10 -262144
-1 -1 0 1;
#X floatatom 100 311 5 0 0 0 - - -;
#X obj 82 342 f;
#X obj 100 116 vsl 14 80 0.1 1 0 0 empty empty empty 0 -9 0 10 -262144
-1 -1 7900 1;
#X obj 100 198 tgl 14 0 empty empty empty 17 7 0 10 -262144 -1 -1 0
1;
#X obj 100 100 tgl 14 0 empty empty empty 17 7 0 10 -262144 -1 -1 1
1;
#X obj 258 342 f;
#X obj 406 342 f;
#X obj 567 342 f;
#X obj 82 72 t b b b b b;
#X obj 107 413 f \$1;
#X msg 107 476 symbol \$1-start-pos;
#X obj 107 390 loadbang;
#X msg 283 474 symbol \$1-pitch;
#X msg 431 474 symbol \$1-reverse;
#X msg 592 474 symbol \$1-on-off;
#X obj 82 503 send;
#X obj 258 503 send;
#X obj 406 503 send;
#X obj 567 503 send;
#X obj 173 12 r \$1-step-\$2;
#X obj 240 60 route start-pos pitch reverse on-off;
#X obj 489 116 print \$1-step-\$2;
#X msg 489 90 unknown route!;
#X obj 173 36 route step;
#X connect 0 0 1 0;
#X connect 1 0 2 1;
#X connect 2 0 16 0;
#X connect 3 0 6 1;
#X connect 4 0 7 1;
#X connect 5 0 8 1;
#X connect 6 0 17 0;
#X connect 7 0 18 0;
#X connect 8 0 19 0;
#X connect 9 0 2 0;
#X connect 9 1 6 0;
#X connect 9 2 7 0;
#X connect 9 3 8 0;
#X connect 10 0 11 0;
#X connect 10 0 13 0;
#X connect 10 0 14 0;
#X connect 10 0 15 0;
#X connect 11 0 16 1;
#X connect 12 0 10 0;
#X connect 13 0 17 1;
#X connect 14 0 18 1;
#X connect 15 0 19 1;
#X connect 20 0 24 0;
#X connect 21 0 0 0;
#X connect 21 1 3 0;
#X connect 21 2 4 0;
#X connect 21 3 5 0;
#X connect 21 4 23 0;
#X connect 23 0 22 0;
#X connect 24 0 9 0;
#X connect 24 1 21 0;
#X coords 0 -1 1 1 14 200 2 100 100;
